<svg width="141" height="34" viewBox="0 0 141 34" fill="none" xmlns="http://www.w3.org/2000/svg">
<path d="M2.00852 27V6.63636H9.64489C11.2093 6.63636 12.5218 6.90814 13.5824 7.4517C14.6496 7.99526 15.455 8.75757 15.9986 9.73864C16.5488 10.7131 16.8239 11.8499 16.8239 13.1491C16.8239 14.455 16.5455 15.5885 15.9886 16.5497C15.4384 17.5043 14.6264 18.2434 13.5526 18.767C12.4787 19.2841 11.1596 19.5426 9.59517 19.5426H4.15625V16.4801H9.09801C10.0128 16.4801 10.7618 16.3542 11.3452 16.1023C11.9285 15.8437 12.3594 15.4692 12.6378 14.9787C12.9228 14.4815 13.0653 13.8717 13.0653 13.1491C13.0653 12.4266 12.9228 11.8101 12.6378 11.2997C12.3527 10.7827 11.9186 10.3916 11.3352 10.1264C10.7519 9.85464 9.99953 9.71875 9.07812 9.71875H5.69744V27H2.00852ZM12.5284 17.7727L17.5696 27H13.4531L8.50142 17.7727H12.5284ZM26.603 27.2983C25.0717 27.2983 23.7493 26.9801 22.6357 26.3438C21.5286 25.7008 20.6768 24.7926 20.0803 23.6193C19.4837 22.4394 19.1854 21.0507 19.1854 19.4531C19.1854 17.8821 19.4837 16.5033 20.0803 15.3168C20.6835 14.1236 21.5253 13.1955 22.6058 12.5327C23.6863 11.8632 24.9557 11.5284 26.4141 11.5284C27.3554 11.5284 28.2436 11.6809 29.0788 11.9858C29.9207 12.2841 30.6631 12.7481 31.3061 13.3778C31.9557 14.0076 32.4661 14.8097 32.8374 15.7841C33.2086 16.7519 33.3942 17.9053 33.3942 19.2443V20.348H20.8757V17.9219H29.9439C29.9373 17.2325 29.7881 16.6193 29.4964 16.0824C29.2048 15.5388 28.7971 15.1113 28.2734 14.7997C27.7564 14.4882 27.1532 14.3324 26.4638 14.3324C25.728 14.3324 25.0817 14.5114 24.5249 14.8693C23.968 15.2206 23.5339 15.6847 23.2223 16.2614C22.9174 16.8314 22.7616 17.4579 22.755 18.1406V20.2585C22.755 21.1468 22.9174 21.9091 23.2422 22.5455C23.567 23.1752 24.0211 23.6591 24.6044 23.9972C25.1877 24.3286 25.8705 24.4943 26.6527 24.4943C27.1764 24.4943 27.6503 24.4214 28.0746 24.2756C28.4988 24.1231 28.8667 23.901 29.1783 23.6094C29.4898 23.3177 29.7251 22.9564 29.8842 22.5256L33.245 22.9034C33.0329 23.7917 32.6286 24.5672 32.032 25.2301C31.442 25.8864 30.6863 26.3968 29.7649 26.7614C28.8435 27.1193 27.7895 27.2983 26.603 27.2983ZM49.6438 11.7273L44.2049 27H40.2276L34.7887 11.7273H38.6268L42.1367 23.0724H42.2958L45.8157 11.7273H49.6438ZM52.1346 27V11.7273H55.734V27H52.1346ZM53.9442 9.55966C53.3742 9.55966 52.8836 9.37074 52.4727 8.9929C52.0617 8.60843 51.8562 8.14773 51.8562 7.61079C51.8562 7.06723 52.0617 6.60653 52.4727 6.22869C52.8836 5.84422 53.3742 5.65199 53.9442 5.65199C54.521 5.65199 55.0115 5.84422 55.4158 6.22869C55.8268 6.60653 56.0323 7.06723 56.0323 7.61079C56.0323 8.14773 55.8268 8.60843 55.4158 8.9929C55.0115 9.37074 54.521 9.55966 53.9442 9.55966ZM71.5064 15.7642L68.2251 16.1222C68.1323 15.7907 67.9699 15.4792 67.7379 15.1875C67.5125 14.8958 67.2076 14.6605 66.8232 14.4815C66.4387 14.3026 65.968 14.2131 65.4112 14.2131C64.6622 14.2131 64.0324 14.3755 63.522 14.7003C63.0182 15.0251 62.7696 15.446 62.7763 15.9631C62.7696 16.4072 62.9321 16.7685 63.2635 17.0469C63.6016 17.3253 64.1584 17.554 64.9339 17.733L67.5391 18.2898C68.9841 18.6013 70.058 19.0952 70.7607 19.7713C71.4699 20.4474 71.8279 21.3324 71.8345 22.4261C71.8279 23.3873 71.5462 24.2358 70.9893 24.9716C70.4392 25.7008 69.6735 26.2708 68.6925 26.6818C67.7114 27.0928 66.5845 27.2983 65.3118 27.2983C63.4425 27.2983 61.9377 26.9072 60.7976 26.125C59.6574 25.3362 58.978 24.2391 58.7592 22.8338L62.2692 22.4957C62.4283 23.1851 62.7663 23.7055 63.2834 24.0568C63.8004 24.4081 64.4732 24.5838 65.3018 24.5838C66.157 24.5838 66.843 24.4081 67.3601 24.0568C67.8838 23.7055 68.1456 23.2713 68.1456 22.7543C68.1456 22.3168 67.9766 21.9555 67.6385 21.6705C67.3071 21.3854 66.79 21.1667 66.0874 21.0142L63.4822 20.4673C62.0173 20.1624 60.9335 19.6487 60.2308 18.9261C59.5282 18.197 59.1802 17.2756 59.1868 16.1619C59.1802 15.2206 59.4354 14.4053 59.9524 13.7159C60.4761 13.0199 61.2019 12.483 62.13 12.1051C63.0646 11.7206 64.1418 11.5284 65.3615 11.5284C67.1513 11.5284 68.5599 11.9096 69.5874 12.6719C70.6214 13.4342 71.2611 14.465 71.5064 15.7642ZM79.1974 27.3082C78.2296 27.3082 77.358 27.1359 76.5824 26.7912C75.8134 26.4399 75.2036 25.9228 74.7528 25.2401C74.3087 24.5573 74.0866 23.7154 74.0866 22.7145C74.0866 21.8527 74.2457 21.1402 74.5639 20.5767C74.8821 20.0133 75.3163 19.5625 75.8665 19.2244C76.4167 18.8864 77.0365 18.6312 77.7259 18.4588C78.4219 18.2798 79.1411 18.1506 79.8835 18.071C80.7784 17.9782 81.5043 17.8954 82.0611 17.8224C82.6179 17.7429 83.0223 17.6236 83.2741 17.4645C83.5327 17.2988 83.6619 17.0436 83.6619 16.6989V16.6392C83.6619 15.8902 83.4399 15.3101 82.9957 14.8991C82.5516 14.4882 81.9119 14.2827 81.0767 14.2827C80.1951 14.2827 79.4957 14.4749 78.9787 14.8594C78.4683 15.2438 78.1236 15.6979 77.9446 16.2216L74.5838 15.7443C74.849 14.8163 75.2865 14.0407 75.8963 13.4176C76.5062 12.7879 77.2519 12.3172 78.1335 12.0057C79.0152 11.6875 79.9896 11.5284 81.0568 11.5284C81.7926 11.5284 82.5251 11.6146 83.2543 11.7869C83.9834 11.9593 84.6496 12.2443 85.2528 12.642C85.8561 13.0331 86.34 13.5668 86.7045 14.2429C87.0758 14.919 87.2614 15.7642 87.2614 16.7784V27H83.8011V24.902H83.6818C83.4631 25.3262 83.1548 25.724 82.7571 26.0952C82.366 26.4598 81.8722 26.7547 81.2756 26.9801C80.6856 27.1989 79.9929 27.3082 79.1974 27.3082ZM80.1321 24.6634C80.8546 24.6634 81.4811 24.5208 82.0114 24.2358C82.5417 23.9441 82.9493 23.5597 83.2344 23.0824C83.526 22.6051 83.6719 22.0848 83.6719 21.5213V19.7216C83.5592 19.8144 83.367 19.9006 83.0952 19.9801C82.83 20.0597 82.5317 20.1293 82.2003 20.1889C81.8688 20.2486 81.5407 20.3016 81.2159 20.348C80.8911 20.3944 80.6094 20.4342 80.3707 20.4673C79.8338 20.5402 79.3532 20.6596 78.929 20.8253C78.5047 20.991 78.17 21.223 77.9247 21.5213C77.6795 21.813 77.5568 22.1908 77.5568 22.6548C77.5568 23.3177 77.7988 23.8182 78.2827 24.1562C78.7666 24.4943 79.383 24.6634 80.1321 24.6634ZM90.8807 27V11.7273H94.3707V14.2727H94.5298C94.8082 13.3911 95.2855 12.7116 95.9616 12.2344C96.6444 11.7505 97.4233 11.5085 98.2983 11.5085C98.4972 11.5085 98.7192 11.5185 98.9645 11.5384C99.2164 11.5516 99.4252 11.5748 99.5909 11.608V14.919C99.4384 14.866 99.1965 14.8196 98.8651 14.7798C98.5402 14.7334 98.2254 14.7102 97.9205 14.7102C97.2642 14.7102 96.6742 14.8527 96.1506 15.1378C95.6335 15.4162 95.2259 15.804 94.9276 16.3011C94.6293 16.7983 94.4801 17.3717 94.4801 18.0213V27H90.8807Z" fill="#D3455B"/>
<rect x="117.5" y="2.5" width="23" height="23" rx="1.5" fill="#D3455B" stroke="white"/>
<rect x="114.5" y="5.5" width="23" height="23" rx="1.5" fill="#D3455B" stroke="white"/>
<rect x="111.5" y="8.5" width="23" height="23" rx="1.5" fill="#D3455B" stroke="white"/>
</svg>
